<svg width="200" height="60" viewBox="0 0 200 60" fill="none" xmlns="http://www.w3.org/2000/svg">
  <rect width="200" height="60" rx="8" fill="white"/>
  <path d="M20 15H30V45H20V15Z" fill="#2563EB"/>
  <path d="M35 15H45V45H35V15Z" fill="#2563EB"/>
  <path d="M20 25H45V35H20V25Z" fill="#2563EB"/>
  <path d="M50 15H60V45H50V15Z" fill="#2563EB"/>
  <path d="M65 15H75V45H65V15Z" fill="#2563EB"/>
  <path d="M80 15H90V45H80V15Z" fill="#2563EB"/>
  <path d="M95 15H105V45H95V15Z" fill="#2563EB"/>
  <path d="M110 15H120V45H110V15Z" fill="#2563EB"/>
  <path d="M125 15H135V45H125V15Z" fill="#2563EB"/>
  <path d="M140 15H150V45H140V15Z" fill="#2563EB"/>
  <path d="M155 15H165V45H155V15Z" fill="#2563EB"/>
  <path d="M170 15H180V45H170V15Z" fill="#2563EB"/>
  <text x="60" y="35" font-family="Arial" font-weight="bold" font-size="20" fill="#2563EB">HUMANIS</text>
</svg>
